<?xml version="1.0" encoding="UTF-8"?>
<svg width="619px" height="426px" viewBox="0 0 619 426" version="1.1" xmlns="http://www.w3.org/2000/svg" xmlns:xlink="http://www.w3.org/1999/xlink">
    <title>Artboard 2</title>
    <g id="Artboard-2" stroke="none" stroke-width="1" fill="none" fill-rule="evenodd">
        <path d="M481,167.4681 C480.999,186.3551 475.673,192.8891 465.565,197.6801 L465.568,141.8801 C469.27,143.1881 472.475,145.4281 475.047,148.5381 L475.597,149.1861 C477.828,151.7501 481,157.4161 481,167.4681 M612.52,137.2341 L612.413,136.6971 C601.368,81.5751 570.802,51.3951 546.981,35.7501 C519.459,16.5721 485.236,6.0131 450.576,6.0111 L60.133,5.9901 C44.228,5.9901 29.844,12.8181 19.633,25.2151 C11.273,35.3651 6.478,48.3441 6.477,60.8271 L6.477,65.2221 C6.449,69.5701 5.395,239.2031 7.567,331.7361 C7.578,332.1791 7.597,332.6231 7.623,333.0341 C9.777,367.9201 27.354,395.0821 57.117,409.5201 C77.611,419.4601 97.547,419.7791 99.782,419.7791 L99.85,419.7791 C107.152,419.7791 279.577,419.7671 364.343,418.6971 C369.635,418.6971 376.21,418.6821 384.659,416.6481 L385.123,416.5331 C416.583,408.4921 440.015,389.1641 452.884,360.6401 C456.641,352.3131 459.436,343.4221 461.32,333.7551 C481.156,331.6831 500.021,326.8681 517.588,319.3831 C541.736,309.0931 562.233,294.2841 578.512,275.3681 C610.584,238.0971 622.66,189.0451 612.52,137.2341" id="Fill-22" fill="#FFFFFF"></path>
        <path d="M578.7509,143.6406 C570.8369,103.8886 550.3729,78.9586 527.7179,64.2186 C505.0639,48.3006 477.7779,40.3826 450.5749,40.3806 L60.1339,40.3596 C46.4899,40.3596 40.8469,54.0026 40.8459,60.8246 C40.8459,61.9186 40.8459,65.3716 40.8459,65.3716 C40.8459,65.3716 39.7419,237.8536 41.9269,330.9156 C45.2929,385.408603 99.7829,385.408603 99.7829,385.408603 C99.7829,385.408603 277.9069,385.4186 364.1469,384.3276 C368.6949,384.3286 372.0639,384.3286 376.6119,383.2336 C425.3749,370.7716 429.9259,325.3776 429.9269,300.3646 C527.6209,304.7496 596.8529,235.5246 578.7509,143.6406 M468.6719,233.2446 C448.2059,235.5166 431.1939,234.3366 431.1939,234.3366 L431.2009,106.1546 L457.3089,106.1566 C474.3209,106.1576 490.2379,112.9796 501.5229,126.6246 C509.4389,135.7206 515.1649,148.1846 515.1639,166.3766 C515.1619,208.3176 493.6009,225.3286 468.6719,233.2446" id="Fill-24" fill="#FFFFFF"></path>
        <path d="M56.2856,330.2907 C54.1676,239.6347 55.1716,72.4777 55.2156,65.3717 L55.2156,60.9127 C55.2776,60.5067 56.2956,54.7297 60.1326,54.7297 L450.5736,54.7507 C475.5166,54.7517 499.9786,62.2897 519.4546,75.9747 C519.5976,76.0757 519.7406,76.1727 519.8816,76.2637 C543.3606,91.5397 558.4246,115.1487 564.6546,146.4277 C571.9236,183.3287 563.7236,217.8307 541.5666,243.5787 C516.6026,272.5897 476.1536,288.0617 430.5736,286.0097 C426.6746,285.8327 422.8206,287.2787 419.9966,289.9787 C417.1756,292.6757 415.5576,296.4617 415.5576,300.3647 C415.5556,339.4177 401.6766,361.9647 373.1876,369.2777 C370.3576,369.9527 368.3156,369.9547 364.2486,369.9587 L363.9656,369.9597 C288.9426,370.9087 144.0036,371.0257 101.3676,371.0387 L99.8176,371.0387 C99.7116,371.0387 89.0426,370.8357 78.3886,365.6667 C64.8326,359.0917 57.3966,347.1897 56.2856,330.2907 M592.8696,140.9637 L592.8666,140.9467 C592.8606,140.9187 592.8556,140.8907 592.8506,140.8627 L592.8296,140.7637 C583.1306,92.1567 556.4626,65.8407 535.7726,52.3167 C511.5366,35.3557 481.2826,26.0137 450.5746,26.0117 L60.1336,25.9907 C38.1746,25.9907 26.4776,46.2207 26.4766,60.8247 L26.4766,65.2807 C26.4656,67.0067 25.3946,238.9727 27.5606,331.2497 C27.5656,331.4337 27.5736,331.6177 27.5846,331.8017 C29.7506,366.8737 49.5866,383.6377 65.8456,391.5247 C82.6436,399.6737 99.0876,399.7787 99.7826,399.7787 L99.8496,399.7787 C107.1516,399.7787 279.6576,399.7657 364.2196,398.6977 C369.1306,398.6977 373.7706,398.6977 379.9516,397.2097 L380.1696,397.1567 C405.8946,390.5817 424.2256,375.5287 434.6526,352.4157 C439.5786,341.4977 442.5566,329.1847 443.7286,314.8627 C467.3316,314.2657 489.5256,309.6007 509.7486,300.9837 C531.0546,291.9047 549.0896,278.8977 563.3516,262.3237 C591.3656,229.7697 601.8466,186.6737 592.8696,140.9637" id="Fill-26" fill="#000000"></path>
        <path d="M445.564,220.2484 L445.569,120.5254 L457.308,120.5264 C470.544,120.5264 482.314,125.9444 490.459,135.7924 L490.684,136.0574 C497.488,143.8754 500.795,153.7934 500.795,166.3754 C500.793,195.0664 490.276,210.8614 465.646,219.1164 C459.228,219.7814 452.491,220.1604 445.564,220.2484 M430.199,248.6714 C430.706,248.7064 435.363,249.0154 442.646,249.0154 C452.066,249.0154 461.356,248.5144 470.255,247.5254 C471.192,247.4224 472.122,247.2254 473.02,246.9394 C510.516,235.0344 529.531,207.9294 529.533,166.3774 C529.533,146.8884 523.789,130.3774 512.507,117.3594 C498.817,100.8704 479.214,91.7884 457.309,91.7854 L431.201,91.7854 C423.278,91.7854 416.831,98.2314 416.831,106.1544 L416.824,234.3364 C416.824,241.8544 422.699,248.1514 430.199,248.6714" id="Fill-28" fill="#000000"></path>
        <path d="M232.6003,312.6503 C237.1483,314.9243 239.4223,312.6503 239.4223,312.6503 C239.4223,312.6503 301.8313,255.8903 330.2153,223.0463 C355.1463,193.5703 356.3273,144.7233 314.3033,126.6143 C271.1833,108.4203 235.9783,148.1703 235.9783,148.1703 C205.3243,114.1433 158.8343,116.4153 137.2733,139.0693 C115.7123,161.7233 123.6263,200.3803 139.5423,223.0363 C154.2803,243.5023 220.1363,302.4593 230.3263,311.5553 C230.3263,310.3763 231.5053,311.5553 232.6003,312.6503" id="Fill-30" fill="#FF5E5B"></path>
        <path d="M234.7057,314.3348 C237.2327,314.8398 239.4217,312.6508 239.4217,312.6508 C239.4217,312.6508 301.8317,255.8898 330.2157,223.0458 C355.1457,193.5708 356.3277,144.7238 314.3027,126.6138 C271.1837,108.4208 235.9777,148.1698 235.9777,148.1698 C205.3237,114.1438 158.8347,116.4148 137.2737,139.0688 C115.7117,161.7228 123.6267,200.3798 139.5427,223.0358 C153.4377,242.3228 223.0837,304.9858 231.7577,312.8188 C232.6007,313.5768 233.6107,314.1658 234.7057,314.3348" id="Fill-32" fill="#FF5F5F"></path>
    </g>
</svg>